<?xml version="1.0" encoding="UTF-8" standalone="no"?>
<!DOCTYPE svg PUBLIC "-//W3C//DTD SVG 1.1//EN"
 "http://www.w3.org/Graphics/SVG/1.1/DTD/svg11.dtd">
<!-- Generated by graphviz version 13.1.2 (20250808.2320)
 -->
<!-- Title: Tree Pages: 1 -->
<svg width="557pt" height="790pt"
 viewBox="0.00 0.00 557.00 790.00" xmlns="http://www.w3.org/2000/svg" xmlns:xlink="http://www.w3.org/1999/xlink">
<g id="graph0" class="graph" transform="scale(1 1) rotate(0) translate(4 786)">
<title>Tree</title>
<polygon fill="white" stroke="none" points="-4,4 -4,-786 553.25,-786 553.25,4 -4,4"/>
<!-- node3 -->
<g id="node1" class="node">
<title>node3</title>
<path fill="#e58139" fill-opacity="0.666667" stroke="black" d="M106.25,-385.25C106.25,-385.25 12,-385.25 12,-385.25 6,-385.25 0,-379.25 0,-373.25 0,-373.25 0,-307.25 0,-307.25 0,-301.25 6,-295.25 12,-295.25 12,-295.25 106.25,-295.25 106.25,-295.25 112.25,-295.25 118.25,-301.25 118.25,-307.25 118.25,-307.25 118.25,-373.25 118.25,-373.25 118.25,-379.25 112.25,-385.25 106.25,-385.25"/>
<text xml:space="preserve" text-anchor="start" x="46" y="-366.95" font-family="Times,serif" font-weight="bold" font-size="14.00">Leaf</text>
<text xml:space="preserve" text-anchor="start" x="10" y="-345.45" font-family="Times,serif" font-size="14.00">virginica: 43</text>
<text xml:space="preserve" text-anchor="start" x="10" y="-324.95" font-family="Times,serif" font-size="14.00">impurity = &#45;0.000</text>
<text xml:space="preserve" text-anchor="start" x="10" y="-304.45" font-family="Times,serif" font-size="14.00">samples = 43</text>
</g>
<!-- node5 -->
<g id="node2" class="node">
<title>node5</title>
<path fill="#e58139" fill-opacity="0.666667" stroke="black" d="M113.25,-232.5C113.25,-232.5 19,-232.5 19,-232.5 13,-232.5 7,-226.5 7,-220.5 7,-220.5 7,-154.5 7,-154.5 7,-148.5 13,-142.5 19,-142.5 19,-142.5 113.25,-142.5 113.25,-142.5 119.25,-142.5 125.25,-148.5 125.25,-154.5 125.25,-154.5 125.25,-220.5 125.25,-220.5 125.25,-226.5 119.25,-232.5 113.25,-232.5"/>
<text xml:space="preserve" text-anchor="start" x="53" y="-214.2" font-family="Times,serif" font-weight="bold" font-size="14.00">Leaf</text>
<text xml:space="preserve" text-anchor="start" x="17" y="-192.7" font-family="Times,serif" font-size="14.00">virginica: 2</text>
<text xml:space="preserve" text-anchor="start" x="17" y="-172.2" font-family="Times,serif" font-size="14.00">impurity = &#45;0.000</text>
<text xml:space="preserve" text-anchor="start" x="17" y="-151.7" font-family="Times,serif" font-size="14.00">samples = 2</text>
</g>
<!-- node6 -->
<g id="node3" class="node">
<title>node6</title>
<path fill="#e58139" fill-opacity="0.666667" stroke="black" d="M249.25,-232.5C249.25,-232.5 155,-232.5 155,-232.5 149,-232.5 143,-226.5 143,-220.5 143,-220.5 143,-154.5 143,-154.5 143,-148.5 149,-142.5 155,-142.5 155,-142.5 249.25,-142.5 249.25,-142.5 255.25,-142.5 261.25,-148.5 261.25,-154.5 261.25,-154.5 261.25,-220.5 261.25,-220.5 261.25,-226.5 255.25,-232.5 249.25,-232.5"/>
<text xml:space="preserve" text-anchor="start" x="189" y="-214.2" font-family="Times,serif" font-weight="bold" font-size="14.00">Leaf</text>
<text xml:space="preserve" text-anchor="start" x="153" y="-192.7" font-family="Times,serif" font-size="14.00">versicolor: 1</text>
<text xml:space="preserve" text-anchor="start" x="153" y="-172.2" font-family="Times,serif" font-size="14.00">impurity = &#45;0.000</text>
<text xml:space="preserve" text-anchor="start" x="153" y="-151.7" font-family="Times,serif" font-size="14.00">samples = 1</text>
</g>
<!-- node4 -->
<g id="node4" class="node">
<title>node4</title>
<path fill="#399de5" fill-opacity="0.666667" stroke="black" d="M256,-375C256,-375 148.25,-375 148.25,-375 142.25,-375 136.25,-369 136.25,-363 136.25,-363 136.25,-317.5 136.25,-317.5 136.25,-311.5 142.25,-305.5 148.25,-305.5 148.25,-305.5 256,-305.5 256,-305.5 262,-305.5 268,-311.5 268,-317.5 268,-317.5 268,-363 268,-363 268,-369 262,-375 256,-375"/>
<text xml:space="preserve" text-anchor="start" x="146.25" y="-356.7" font-family="Times,serif" font-weight="bold" font-size="14.00">SepalLength ≥ 5.95</text>
<text xml:space="preserve" text-anchor="start" x="146.25" y="-335.2" font-family="Times,serif" font-size="14.00">impurity = 0.918</text>
<text xml:space="preserve" text-anchor="start" x="146.25" y="-314.7" font-family="Times,serif" font-size="14.00">samples = 3</text>
</g>
<!-- node4&#45;&gt;node5 -->
<g id="edge1" class="edge">
<title>node4&#45;&gt;node5</title>
<path fill="none" stroke="black" d="M171.26,-305.04C154.24,-286.18 132.75,-262.35 113.63,-241.16"/>
<polygon fill="black" stroke="black" points="116.47,-239.08 107.18,-234 111.28,-243.77 116.47,-239.08"/>
<text xml:space="preserve" text-anchor="middle" x="146.88" y="-253.7" font-family="Times,serif" font-size="14.00">True</text>
</g>
<!-- node4&#45;&gt;node6 -->
<g id="edge2" class="edge">
<title>node4&#45;&gt;node6</title>
<path fill="none" stroke="black" d="M202.12,-305.04C202.12,-287.09 202.12,-264.66 202.12,-244.27"/>
<polygon fill="black" stroke="black" points="205.63,-244.39 202.13,-234.39 198.63,-244.39 205.63,-244.39"/>
<text xml:space="preserve" text-anchor="middle" x="216.38" y="-253.7" font-family="Times,serif" font-size="14.00">False</text>
</g>
<!-- node2 -->
<g id="node5" class="node">
<title>node2</title>
<path fill="#399de5" fill-opacity="0.666667" stroke="black" d="M253.88,-517.5C253.88,-517.5 148.38,-517.5 148.38,-517.5 142.38,-517.5 136.38,-511.5 136.38,-505.5 136.38,-505.5 136.38,-460 136.38,-460 136.38,-454 142.38,-448 148.38,-448 148.38,-448 253.88,-448 253.88,-448 259.88,-448 265.88,-454 265.88,-460 265.88,-460 265.88,-505.5 265.88,-505.5 265.88,-511.5 259.88,-517.5 253.88,-517.5"/>
<text xml:space="preserve" text-anchor="start" x="146.38" y="-499.2" font-family="Times,serif" font-weight="bold" font-size="14.00">PetalLength ≥ 4.85</text>
<text xml:space="preserve" text-anchor="start" x="146.38" y="-477.7" font-family="Times,serif" font-size="14.00">impurity = 0.151</text>
<text xml:space="preserve" text-anchor="start" x="146.38" y="-457.2" font-family="Times,serif" font-size="14.00">samples = 46</text>
</g>
<!-- node2&#45;&gt;node3 -->
<g id="edge3" class="edge">
<title>node2&#45;&gt;node3</title>
<path fill="none" stroke="black" d="M166.75,-447.74C150.23,-431.39 130.07,-411.45 111.68,-393.25"/>
<polygon fill="black" stroke="black" points="114.57,-391.19 105,-386.64 109.65,-396.16 114.57,-391.19"/>
<text xml:space="preserve" text-anchor="middle" x="159.77" y="-416.7" font-family="Times,serif" font-size="14.00">True</text>
</g>
<!-- node2&#45;&gt;node4 -->
<g id="edge4" class="edge">
<title>node2&#45;&gt;node4</title>
<path fill="none" stroke="black" d="M201.37,-447.74C201.5,-429.41 201.66,-406.55 201.8,-386.71"/>
<polygon fill="black" stroke="black" points="205.3,-386.97 201.87,-376.95 198.3,-386.92 205.3,-386.97"/>
<text xml:space="preserve" text-anchor="middle" x="215.85" y="-416.7" font-family="Times,serif" font-size="14.00">False</text>
</g>
<!-- node10 -->
<g id="node6" class="node">
<title>node10</title>
<path fill="#e58139" fill-opacity="0.666667" stroke="black" d="M326.25,-90C326.25,-90 232,-90 232,-90 226,-90 220,-84 220,-78 220,-78 220,-12 220,-12 220,-6 226,0 232,0 232,0 326.25,0 326.25,0 332.25,0 338.25,-6 338.25,-12 338.25,-12 338.25,-78 338.25,-78 338.25,-84 332.25,-90 326.25,-90"/>
<text xml:space="preserve" text-anchor="start" x="266" y="-71.7" font-family="Times,serif" font-weight="bold" font-size="14.00">Leaf</text>
<text xml:space="preserve" text-anchor="start" x="230" y="-50.2" font-family="Times,serif" font-size="14.00">virginica: 1</text>
<text xml:space="preserve" text-anchor="start" x="230" y="-29.7" font-family="Times,serif" font-size="14.00">impurity = &#45;0.000</text>
<text xml:space="preserve" text-anchor="start" x="230" y="-9.2" font-family="Times,serif" font-size="14.00">samples = 1</text>
</g>
<!-- node11 -->
<g id="node7" class="node">
<title>node11</title>
<path fill="#e58139" fill-opacity="0.666667" stroke="black" d="M462.25,-90C462.25,-90 368,-90 368,-90 362,-90 356,-84 356,-78 356,-78 356,-12 356,-12 356,-6 362,0 368,0 368,0 462.25,0 462.25,0 468.25,0 474.25,-6 474.25,-12 474.25,-12 474.25,-78 474.25,-78 474.25,-84 468.25,-90 462.25,-90"/>
<text xml:space="preserve" text-anchor="start" x="402" y="-71.7" font-family="Times,serif" font-weight="bold" font-size="14.00">Leaf</text>
<text xml:space="preserve" text-anchor="start" x="366" y="-50.2" font-family="Times,serif" font-size="14.00">versicolor: 2</text>
<text xml:space="preserve" text-anchor="start" x="366" y="-29.7" font-family="Times,serif" font-size="14.00">impurity = &#45;0.000</text>
<text xml:space="preserve" text-anchor="start" x="366" y="-9.2" font-family="Times,serif" font-size="14.00">samples = 2</text>
</g>
<!-- node9 -->
<g id="node8" class="node">
<title>node9</title>
<path fill="#399de5" fill-opacity="0.666667" stroke="black" d="M401,-222.25C401,-222.25 293.25,-222.25 293.25,-222.25 287.25,-222.25 281.25,-216.25 281.25,-210.25 281.25,-210.25 281.25,-164.75 281.25,-164.75 281.25,-158.75 287.25,-152.75 293.25,-152.75 293.25,-152.75 401,-152.75 401,-152.75 407,-152.75 413,-158.75 413,-164.75 413,-164.75 413,-210.25 413,-210.25 413,-216.25 407,-222.25 401,-222.25"/>
<text xml:space="preserve" text-anchor="start" x="291.25" y="-203.95" font-family="Times,serif" font-weight="bold" font-size="14.00">SepalLength ≥ 6.95</text>
<text xml:space="preserve" text-anchor="start" x="291.25" y="-182.45" font-family="Times,serif" font-size="14.00">impurity = 0.918</text>
<text xml:space="preserve" text-anchor="start" x="291.25" y="-161.95" font-family="Times,serif" font-size="14.00">samples = 3</text>
</g>
<!-- node9&#45;&gt;node10 -->
<g id="edge5" class="edge">
<title>node9&#45;&gt;node10</title>
<path fill="none" stroke="black" d="M330.66,-152.49C323.11,-136.87 313.96,-117.97 305.48,-100.45"/>
<polygon fill="black" stroke="black" points="308.75,-99.17 301.24,-91.69 302.44,-102.22 308.75,-99.17"/>
<text xml:space="preserve" text-anchor="middle" x="327.91" y="-111.2" font-family="Times,serif" font-size="14.00">True</text>
</g>
<!-- node9&#45;&gt;node11 -->
<g id="edge6" class="edge">
<title>node9&#45;&gt;node11</title>
<path fill="none" stroke="black" d="M363.59,-152.49C371.14,-136.87 380.29,-117.97 388.77,-100.45"/>
<polygon fill="black" stroke="black" points="391.81,-102.22 393.01,-91.69 385.5,-99.17 391.81,-102.22"/>
<text xml:space="preserve" text-anchor="middle" x="397.41" y="-111.2" font-family="Times,serif" font-size="14.00">False</text>
</g>
<!-- node12 -->
<g id="node9" class="node">
<title>node12</title>
<path fill="#e58139" fill-opacity="0.666667" stroke="black" d="M537.25,-232.5C537.25,-232.5 443,-232.5 443,-232.5 437,-232.5 431,-226.5 431,-220.5 431,-220.5 431,-154.5 431,-154.5 431,-148.5 437,-142.5 443,-142.5 443,-142.5 537.25,-142.5 537.25,-142.5 543.25,-142.5 549.25,-148.5 549.25,-154.5 549.25,-154.5 549.25,-220.5 549.25,-220.5 549.25,-226.5 543.25,-232.5 537.25,-232.5"/>
<text xml:space="preserve" text-anchor="start" x="477" y="-214.2" font-family="Times,serif" font-weight="bold" font-size="14.00">Leaf</text>
<text xml:space="preserve" text-anchor="start" x="441" y="-192.7" font-family="Times,serif" font-size="14.00">virginica: 3</text>
<text xml:space="preserve" text-anchor="start" x="441" y="-172.2" font-family="Times,serif" font-size="14.00">impurity = &#45;0.000</text>
<text xml:space="preserve" text-anchor="start" x="441" y="-151.7" font-family="Times,serif" font-size="14.00">samples = 3</text>
</g>
<!-- node8 -->
<g id="node10" class="node">
<title>node8</title>
<path fill="#399de5" fill-opacity="0.666667" stroke="black" d="M399.62,-375C399.62,-375 298.62,-375 298.62,-375 292.62,-375 286.62,-369 286.62,-363 286.62,-363 286.62,-317.5 286.62,-317.5 286.62,-311.5 292.62,-305.5 298.62,-305.5 298.62,-305.5 399.62,-305.5 399.62,-305.5 405.62,-305.5 411.62,-311.5 411.62,-317.5 411.62,-317.5 411.62,-363 411.62,-363 411.62,-369 405.62,-375 399.62,-375"/>
<text xml:space="preserve" text-anchor="start" x="296.62" y="-356.7" font-family="Times,serif" font-weight="bold" font-size="14.00">PetalWidth ≥ 1.55</text>
<text xml:space="preserve" text-anchor="start" x="296.62" y="-335.2" font-family="Times,serif" font-size="14.00">impurity = 0.918</text>
<text xml:space="preserve" text-anchor="start" x="296.62" y="-314.7" font-family="Times,serif" font-size="14.00">samples = 6</text>
</g>
<!-- node8&#45;&gt;node9 -->
<g id="edge7" class="edge">
<title>node8&#45;&gt;node9</title>
<path fill="none" stroke="black" d="M348.67,-305.04C348.39,-284.03 348.03,-256.87 347.73,-234.05"/>
<polygon fill="black" stroke="black" points="351.23,-234.04 347.6,-224.09 344.23,-234.13 351.23,-234.04"/>
<text xml:space="preserve" text-anchor="middle" x="360.88" y="-253.7" font-family="Times,serif" font-size="14.00">True</text>
</g>
<!-- node8&#45;&gt;node12 -->
<g id="edge8" class="edge">
<title>node8&#45;&gt;node12</title>
<path fill="none" stroke="black" d="M381.12,-305.04C398.77,-286.18 421.05,-262.35 440.87,-241.16"/>
<polygon fill="black" stroke="black" points="443.31,-243.68 447.58,-233.99 438.19,-238.9 443.31,-243.68"/>
<text xml:space="preserve" text-anchor="middle" x="442.32" y="-253.7" font-family="Times,serif" font-size="14.00">False</text>
</g>
<!-- node13 -->
<g id="node11" class="node">
<title>node13</title>
<path fill="#e58139" fill-opacity="0.666667" stroke="black" d="M531,-395.5C531,-395.5 441.25,-395.5 441.25,-395.5 435.25,-395.5 429.25,-389.5 429.25,-383.5 429.25,-383.5 429.25,-297 429.25,-297 429.25,-291 435.25,-285 441.25,-285 441.25,-285 531,-285 531,-285 537,-285 543,-291 543,-297 543,-297 543,-383.5 543,-383.5 543,-389.5 537,-395.5 531,-395.5"/>
<text xml:space="preserve" text-anchor="start" x="473" y="-377.2" font-family="Times,serif" font-weight="bold" font-size="14.00">Leaf</text>
<text xml:space="preserve" text-anchor="start" x="439.25" y="-355.7" font-family="Times,serif" font-size="14.00">versicolor: 47</text>
<text xml:space="preserve" text-anchor="start" x="439.25" y="-335.2" font-family="Times,serif" font-size="14.00">virginica: 1</text>
<text xml:space="preserve" text-anchor="start" x="439.25" y="-314.7" font-family="Times,serif" font-size="14.00">impurity = 0.146</text>
<text xml:space="preserve" text-anchor="start" x="439.25" y="-294.2" font-family="Times,serif" font-size="14.00">samples = 48</text>
</g>
<!-- node7 -->
<g id="node12" class="node">
<title>node7</title>
<path fill="#399de5" fill-opacity="0.666667" stroke="black" d="M401.88,-517.5C401.88,-517.5 296.38,-517.5 296.38,-517.5 290.38,-517.5 284.38,-511.5 284.38,-505.5 284.38,-505.5 284.38,-460 284.38,-460 284.38,-454 290.38,-448 296.38,-448 296.38,-448 401.88,-448 401.88,-448 407.88,-448 413.88,-454 413.88,-460 413.88,-460 413.88,-505.5 413.88,-505.5 413.88,-511.5 407.88,-517.5 401.88,-517.5"/>
<text xml:space="preserve" text-anchor="start" x="294.38" y="-499.2" font-family="Times,serif" font-weight="bold" font-size="14.00">PetalLength ≥ 4.95</text>
<text xml:space="preserve" text-anchor="start" x="294.38" y="-477.7" font-family="Times,serif" font-size="14.00">impurity = 0.445</text>
<text xml:space="preserve" text-anchor="start" x="294.38" y="-457.2" font-family="Times,serif" font-size="14.00">samples = 54</text>
</g>
<!-- node7&#45;&gt;node8 -->
<g id="edge9" class="edge">
<title>node7&#45;&gt;node8</title>
<path fill="none" stroke="black" d="M349.12,-447.74C349.12,-429.41 349.12,-406.55 349.12,-386.71"/>
<polygon fill="black" stroke="black" points="352.63,-386.95 349.13,-376.95 345.63,-386.95 352.63,-386.95"/>
<text xml:space="preserve" text-anchor="middle" x="361.88" y="-416.7" font-family="Times,serif" font-size="14.00">True</text>
</g>
<!-- node7&#45;&gt;node13 -->
<g id="edge10" class="edge">
<title>node7&#45;&gt;node13</title>
<path fill="none" stroke="black" d="M382.29,-447.74C395.24,-434.46 410.5,-418.8 425.29,-403.64"/>
<polygon fill="black" stroke="black" points="427.43,-406.46 431.9,-396.86 422.42,-401.57 427.43,-406.46"/>
<text xml:space="preserve" text-anchor="middle" x="427.77" y="-416.7" font-family="Times,serif" font-size="14.00">False</text>
</g>
<!-- node1 -->
<g id="node13" class="node">
<title>node1</title>
<path fill="#399de5" fill-opacity="0.666667" stroke="black" d="M324.62,-649.75C324.62,-649.75 223.62,-649.75 223.62,-649.75 217.62,-649.75 211.62,-643.75 211.62,-637.75 211.62,-637.75 211.62,-592.25 211.62,-592.25 211.62,-586.25 217.62,-580.25 223.62,-580.25 223.62,-580.25 324.62,-580.25 324.62,-580.25 330.62,-580.25 336.62,-586.25 336.62,-592.25 336.62,-592.25 336.62,-637.75 336.62,-637.75 336.62,-643.75 330.62,-649.75 324.62,-649.75"/>
<text xml:space="preserve" text-anchor="start" x="221.62" y="-631.45" font-family="Times,serif" font-weight="bold" font-size="14.00">PetalWidth ≥ 1.75</text>
<text xml:space="preserve" text-anchor="start" x="221.62" y="-609.95" font-family="Times,serif" font-size="14.00">impurity = 1.000</text>
<text xml:space="preserve" text-anchor="start" x="221.62" y="-589.45" font-family="Times,serif" font-size="14.00">samples = 100</text>
</g>
<!-- node1&#45;&gt;node2 -->
<g id="edge11" class="edge">
<title>node1&#45;&gt;node2</title>
<path fill="none" stroke="black" d="M254.95,-579.78C245.98,-563.77 235.19,-544.53 225.64,-527.48"/>
<polygon fill="black" stroke="black" points="228.86,-526.08 220.92,-519.06 222.75,-529.5 228.86,-526.08"/>
<text xml:space="preserve" text-anchor="middle" x="250.38" y="-538.7" font-family="Times,serif" font-size="14.00">True</text>
</g>
<!-- node1&#45;&gt;node7 -->
<g id="edge12" class="edge">
<title>node1&#45;&gt;node7</title>
<path fill="none" stroke="black" d="M293.83,-579.78C303.05,-563.77 314.13,-544.53 323.94,-527.48"/>
<polygon fill="black" stroke="black" points="326.84,-529.47 328.8,-519.05 320.77,-525.97 326.84,-529.47"/>
<text xml:space="preserve" text-anchor="middle" x="332.59" y="-538.7" font-family="Times,serif" font-size="14.00">False</text>
</g>
<!-- node14 -->
<g id="node14" class="node">
<title>node14</title>
<path fill="#e58139" fill-opacity="0.666667" stroke="black" d="M461.25,-660C461.25,-660 367,-660 367,-660 361,-660 355,-654 355,-648 355,-648 355,-582 355,-582 355,-576 361,-570 367,-570 367,-570 461.25,-570 461.25,-570 467.25,-570 473.25,-576 473.25,-582 473.25,-582 473.25,-648 473.25,-648 473.25,-654 467.25,-660 461.25,-660"/>
<text xml:space="preserve" text-anchor="start" x="401" y="-641.7" font-family="Times,serif" font-weight="bold" font-size="14.00">Leaf</text>
<text xml:space="preserve" text-anchor="start" x="365" y="-620.2" font-family="Times,serif" font-size="14.00">setosa: 50</text>
<text xml:space="preserve" text-anchor="start" x="365" y="-599.7" font-family="Times,serif" font-size="14.00">impurity = &#45;0.000</text>
<text xml:space="preserve" text-anchor="start" x="365" y="-579.2" font-family="Times,serif" font-size="14.00">samples = 50</text>
</g>
<!-- node0 -->
<g id="node15" class="node">
<title>node0</title>
<path fill="#399de5" fill-opacity="0.666667" stroke="black" d="M396.88,-782C396.88,-782 291.38,-782 291.38,-782 285.38,-782 279.38,-776 279.38,-770 279.38,-770 279.38,-724.5 279.38,-724.5 279.38,-718.5 285.38,-712.5 291.38,-712.5 291.38,-712.5 396.88,-712.5 396.88,-712.5 402.88,-712.5 408.88,-718.5 408.88,-724.5 408.88,-724.5 408.88,-770 408.88,-770 408.88,-776 402.88,-782 396.88,-782"/>
<text xml:space="preserve" text-anchor="start" x="289.38" y="-763.7" font-family="Times,serif" font-weight="bold" font-size="14.00">PetalLength ≥ 2.45</text>
<text xml:space="preserve" text-anchor="start" x="289.38" y="-742.2" font-family="Times,serif" font-size="14.00">impurity = 1.585</text>
<text xml:space="preserve" text-anchor="start" x="289.38" y="-721.7" font-family="Times,serif" font-size="14.00">samples = 150</text>
</g>
<!-- node0&#45;&gt;node1 -->
<g id="edge13" class="edge">
<title>node0&#45;&gt;node1</title>
<path fill="none" stroke="black" d="M325.73,-712.03C317.13,-696.02 306.79,-676.78 297.63,-659.73"/>
<polygon fill="black" stroke="black" points="300.93,-658.48 293.11,-651.33 294.76,-661.79 300.93,-658.48"/>
<text xml:space="preserve" text-anchor="middle" x="328.14" y="-681.2" font-family="Times,serif" font-size="14.00">True</text>
</g>
<!-- node0&#45;&gt;node14 -->
<g id="edge14" class="edge">
<title>node0&#45;&gt;node14</title>
<path fill="none" stroke="black" d="M362.52,-712.03C369.36,-699.29 377.31,-684.5 384.89,-670.4"/>
<polygon fill="black" stroke="black" points="387.95,-672.09 389.6,-661.63 381.79,-668.78 387.95,-672.09"/>
<text xml:space="preserve" text-anchor="middle" x="393.38" y="-681.2" font-family="Times,serif" font-size="14.00">False</text>
</g>
</g>
</svg>
